<svg width="16" height="16" xmlns="http://www.w3.org/2000/svg" xmlns:svg="http://www.w3.org/2000/svg">
 <g display="inline">
  <title>Layer 1</title>
  <g stroke="null" id="svg_1" transform="rotate(-30 10.112958908081053,3.2211506366729727) ">
   <path stroke="null" d="m9.594895,1.155749c0,0 0.024883,0.275473 -0.012761,0.614268c-0.028727,0.258562 -0.097426,0.547823 -0.23007,0.773049c-0.071023,-0.288473 -0.247859,-0.478129 -0.41012,-0.640393c-0.060986,-0.060955 -0.165396,-0.0252 -0.176201,0.060355c-0.05049,0.403947 -0.148908,0.679573 -0.238778,0.926158c-0.089874,0.246585 -0.173889,0.46953 -0.176809,0.745909c0,1.036945 0.829555,1.762803 1.762803,1.762968c0.972342,0 1.762803,-0.790462 1.762803,-1.762803c0,-0.432059 -0.111081,-0.87403 -0.435437,-1.306504c-0.059759,-0.079845 -0.186763,-0.037545 -0.186728,0.062173c0,0.273149 -0.103952,0.432271 -0.2323,0.579839c-0.025937,-0.351916 -0.093558,-0.709719 -0.258833,-1.029248c-0.204435,-0.395243 -0.538617,-0.729064 -1.031474,-0.893347c-0.083987,-0.017401 -0.136398,0.023711 -0.136096,0.107577l0.000001,-0.000001zm0.203134,0.148454c0.362917,0.15757 0.61593,0.414874 0.780139,0.732341c0.184416,0.356537 0.260651,0.781961 0.260651,1.183776c0.000035,0.092355 0.111684,0.138597 0.177012,0.073316c0.156652,-0.156656 0.32991,-0.336032 0.40566,-0.607786c0.178901,0.316644 0.246883,0.629863 0.246883,0.949246c0,0.860262 -0.695156,1.555414 -1.555414,1.555414c-0.829555,0 -1.555414,-0.725858 -1.555414,-1.55479c0.002567,-0.235369 0.074064,-0.428183 0.164252,-0.675631c0.0727,-0.199477 0.149198,-0.451141 0.206579,-0.756443c0.138311,0.153356 0.251335,0.315366 0.251335,0.601915c0.000035,0.092355 0.111684,0.138597 0.177009,0.073316c0.288567,-0.288567 0.391461,-0.724612 0.431589,-1.085754c0.020885,-0.162743 0.018694,-0.335581 0.009719,-0.488918l0,-0.000002z" stroke-dashoffset="0" stroke-miterlimit="4" stroke-linejoin="round" stroke-linecap="round" stroke-width="0.529167" fill-rule="nonzero" fill="#000000" clip-rule="nonzero" id="svg_2"/>
  </g>
  <text x="0" y="27.7" fill="#000000" font-size="5px" font-weight="bold" font-family="&#x27;Helvetica Neue', Helvetica, Arial-Unicode, Arial, Sans-serif" id="svg_3">Created by Assyifa Art</text>
  <text x="0" y="32.7" fill="#000000" font-size="5px" font-weight="bold" font-family="&#x27;Helvetica Neue', Helvetica, Arial-Unicode, Arial, Sans-serif" id="svg_4">from the Noun Project</text>
  <g id="svg_5" stroke="null" transform="rotate(-30 3.4086830615997297,7.1364073753356925) ">
   <path id="svg_6" stroke="null" d="m2.890618,5.071006c0,0 0.024883,0.275473 -0.012761,0.614268c-0.028727,0.258562 -0.097426,0.547823 -0.23007,0.773049c-0.071023,-0.288473 -0.247859,-0.478129 -0.410119,-0.640393c-0.060986,-0.060955 -0.165396,-0.0252 -0.176202,0.060355c-0.05049,0.403947 -0.148908,0.679573 -0.238778,0.926158c-0.089874,0.246585 -0.173889,0.46953 -0.176808,0.745909c0,1.036945 0.829555,1.762803 1.762803,1.762968c0.972342,0 1.762803,-0.790462 1.762803,-1.762804c0,-0.432059 -0.11108,-0.874029 -0.435437,-1.306504c-0.059759,-0.079845 -0.186763,-0.037545 -0.186728,0.062174c0,0.273149 -0.103952,0.43227 -0.2323,0.579838c-0.025937,-0.351916 -0.093558,-0.709719 -0.258833,-1.029248c-0.204434,-0.395242 -0.538617,-0.729064 -1.031474,-0.893347c-0.083987,-0.017401 -0.136398,0.023711 -0.136096,0.107577zm0.203134,0.148454c0.362917,0.157569 0.61593,0.414873 0.780138,0.73234c0.184416,0.356537 0.260651,0.781961 0.260651,1.183776c0.000036,0.092355 0.111684,0.138597 0.177013,0.073316c0.156652,-0.156657 0.32991,-0.336032 0.405659,-0.607786c0.178902,0.316644 0.246884,0.629862 0.246884,0.949246c0,0.860262 -0.695156,1.555413 -1.555414,1.555413c-0.829555,0 -1.555414,-0.725858 -1.555414,-1.55479c0.002567,-0.235369 0.074064,-0.428183 0.164252,-0.67563c0.0727,-0.199478 0.149198,-0.451142 0.206579,-0.756444c0.13831,0.153357 0.251335,0.315366 0.251335,0.601915c0.000035,0.092355 0.111684,0.138597 0.177008,0.073316c0.288567,-0.288567 0.391461,-0.724612 0.431589,-1.085754c0.020885,-0.162743 0.018694,-0.335582 0.00972,-0.488918z" stroke-dashoffset="0" stroke-miterlimit="4" stroke-linejoin="round" stroke-linecap="round" stroke-width="0.529167" fill-rule="nonzero" fill="#000000" clip-rule="nonzero"/>
  </g>
  <g id="svg_7" stroke="null" transform="rotate(-30 13.50288009643554,9.332634925842285) ">
   <path id="svg_8" stroke="null" d="m12.984814,7.267233c0,0 0.024883,0.275473 -0.012761,0.614268c-0.028727,0.258562 -0.097426,0.547823 -0.23007,0.773049c-0.071023,-0.288473 -0.247859,-0.478129 -0.410119,-0.640393c-0.060986,-0.060955 -0.165396,-0.0252 -0.176202,0.060355c-0.05049,0.403947 -0.148908,0.679573 -0.238778,0.926158c-0.089874,0.246585 -0.173889,0.46953 -0.176808,0.745909c0,1.036945 0.829555,1.762803 1.762803,1.762968c0.972342,0 1.762803,-0.790462 1.762803,-1.762804c0,-0.432059 -0.11108,-0.874029 -0.435437,-1.306504c-0.059759,-0.079845 -0.186763,-0.037545 -0.186728,0.062174c0,0.273149 -0.103952,0.43227 -0.2323,0.579838c-0.025937,-0.351916 -0.093558,-0.709719 -0.258833,-1.029248c-0.204434,-0.395242 -0.538617,-0.729064 -1.031474,-0.893347c-0.083987,-0.017401 -0.136398,0.023711 -0.136096,0.107577zm0.203134,0.148454c0.362917,0.157569 0.61593,0.414873 0.780138,0.73234c0.184416,0.356537 0.260651,0.781961 0.260651,1.183776c0.000036,0.092355 0.111684,0.138597 0.177013,0.073316c0.156652,-0.156657 0.32991,-0.336032 0.405659,-0.607786c0.178902,0.316644 0.246884,0.629862 0.246884,0.949246c0,0.860262 -0.695156,1.555413 -1.555414,1.555413c-0.829555,0 -1.555414,-0.725858 -1.555414,-1.55479c0.002567,-0.235369 0.074064,-0.428183 0.164252,-0.67563c0.0727,-0.199478 0.149198,-0.451142 0.206579,-0.756444c0.13831,0.153357 0.251335,0.315366 0.251335,0.601915c0.000035,0.092355 0.111684,0.138597 0.177008,0.073316c0.288567,-0.288567 0.391461,-0.724612 0.431589,-1.085754c0.020885,-0.162743 0.018694,-0.335582 0.00972,-0.488918z" stroke-dashoffset="0" stroke-miterlimit="4" stroke-linejoin="round" stroke-linecap="round" stroke-width="0.529167" fill-rule="nonzero" fill="#000000" clip-rule="nonzero"/>
  </g>
  <g stroke="null" transform="rotate(-30 6.545114994049064,11.900531768798826) " id="svg_17">
   <path stroke="null" d="m6.027052,9.83513c0,0 0.024883,0.275473 -0.012761,0.614268c-0.028727,0.258562 -0.097426,0.547823 -0.23007,0.773049c-0.071023,-0.288473 -0.247859,-0.478129 -0.41012,-0.640393c-0.060986,-0.060955 -0.165396,-0.0252 -0.176201,0.060355c-0.05049,0.403947 -0.148908,0.679573 -0.238778,0.926158c-0.089874,0.246585 -0.173889,0.46953 -0.176809,0.745909c0,1.036945 0.829555,1.762803 1.762803,1.762968c0.972342,0 1.762803,-0.790462 1.762803,-1.762803c0,-0.432059 -0.111081,-0.87403 -0.435437,-1.306504c-0.059759,-0.079845 -0.186763,-0.037545 -0.186728,0.062173c0,0.273149 -0.103952,0.432271 -0.2323,0.579839c-0.025937,-0.351916 -0.093558,-0.709719 -0.258833,-1.029248c-0.204435,-0.395243 -0.538617,-0.729064 -1.031474,-0.893347c-0.083987,-0.017401 -0.136398,0.023711 -0.136096,0.107577l0.000001,-0.000001zm0.203134,0.148454c0.362917,0.15757 0.61593,0.414874 0.780139,0.732341c0.184416,0.356537 0.260651,0.781961 0.260651,1.183776c0.000035,0.092355 0.111684,0.138597 0.177012,0.073316c0.156652,-0.156656 0.32991,-0.336032 0.40566,-0.607786c0.178901,0.316644 0.246883,0.629863 0.246883,0.949246c0,0.860262 -0.695156,1.555414 -1.555414,1.555414c-0.829555,0 -1.555414,-0.725858 -1.555414,-1.55479c0.002567,-0.235369 0.074064,-0.428183 0.164252,-0.675631c0.0727,-0.199477 0.149198,-0.451141 0.206579,-0.756443c0.138311,0.153356 0.251335,0.315366 0.251335,0.601915c0.000035,0.092355 0.111684,0.138597 0.177009,0.073316c0.288567,-0.288567 0.391461,-0.724612 0.431589,-1.085754c0.020885,-0.162743 0.018694,-0.335581 0.009719,-0.488918l0,-0.000002z" stroke-dashoffset="0" stroke-miterlimit="4" stroke-linejoin="round" stroke-linecap="round" stroke-width="0.529167" fill-rule="nonzero" fill="#000000" clip-rule="nonzero" id="svg_18"/>
  </g>
 </g>
 <g display="inline">
  <title>Layer 2</title>
  <g id="svg_9" transform="rotate(-30 8.406057357788086,2.9384825229644775) " stroke="null">
   <path id="svg_10" d="m8.030615,1.441684c0,0 0.018033,0.199636 -0.009248,0.445161c-0.020818,0.18738 -0.070605,0.397008 -0.166732,0.560229c-0.05147,-0.209057 -0.179624,-0.3465 -0.297214,-0.464093c-0.044197,-0.044174 -0.119863,-0.018262 -0.127693,0.043739c-0.036591,0.292741 -0.107915,0.492487 -0.173043,0.671188c-0.065132,0.178701 -0.126018,0.340269 -0.128133,0.540561c0,0.751475 0.601179,1.277505 1.277505,1.277625c0.704657,0 1.277505,-0.572849 1.277505,-1.277505c0,-0.313114 -0.0805,-0.63341 -0.315562,-0.946826c-0.043307,-0.057863 -0.135347,-0.027209 -0.135322,0.045058c0,0.197951 -0.075334,0.313267 -0.168348,0.420209c-0.018797,-0.255034 -0.067802,-0.514334 -0.187577,-0.745896c-0.148154,-0.286433 -0.390336,-0.528354 -0.74751,-0.64741c-0.060866,-0.012611 -0.098848,0.017183 -0.09863,0.077961l0.000002,-0.000001zm0.147211,0.107585c0.263006,0.11419 0.446365,0.300659 0.565367,0.530728c0.133646,0.258383 0.188894,0.566688 0.188894,0.857884c0.000026,0.06693 0.080938,0.100441 0.128282,0.053132c0.113526,-0.113529 0.239086,-0.243523 0.293982,-0.440463c0.12965,0.229472 0.178916,0.456462 0.178916,0.68792c0,0.623433 -0.50378,1.12721 -1.12721,1.12721c-0.601179,0 -1.12721,-0.526031 -1.12721,-1.126759c0.00186,-0.170571 0.053675,-0.310305 0.119034,-0.48963c0.052686,-0.144561 0.108124,-0.326943 0.149708,-0.548196c0.100233,0.111138 0.182143,0.228547 0.182143,0.436208c0.000025,0.06693 0.080938,0.100441 0.128278,0.053132c0.209126,-0.209125 0.283692,-0.525127 0.312773,-0.786847c0.015135,-0.11794 0.013548,-0.243196 0.007044,-0.354319l-0.000001,0z" stroke-dashoffset="0" stroke-miterlimit="4" stroke-linejoin="round" stroke-linecap="round" stroke-width="0.529167" fill-rule="nonzero" fill="#000000" clip-rule="nonzero" stroke="null"/>
  </g>
  <g transform="rotate(-30 12.415800094604494,10.971357345581055) " stroke="null" id="svg_11">
   <path d="m12.040358,9.47456c0,0 0.018032,0.199636 -0.009248,0.445161c-0.020819,0.187381 -0.070605,0.397008 -0.166732,0.560229c-0.05147,-0.209057 -0.179624,-0.3465 -0.297214,-0.464093c-0.044197,-0.044174 -0.119863,-0.018263 -0.127693,0.043739c-0.036591,0.292741 -0.107915,0.492487 -0.173043,0.671188c-0.065132,0.178701 -0.126018,0.340269 -0.128133,0.540561c0,0.751475 0.601179,1.277505 1.277505,1.277624c0.704657,0 1.277505,-0.572848 1.277505,-1.277505c0,-0.313113 -0.0805,-0.63341 -0.315562,-0.946825c-0.043307,-0.057863 -0.135347,-0.027209 -0.135322,0.045057c0,0.197952 -0.075334,0.313268 -0.168348,0.42021c-0.018796,-0.255034 -0.067801,-0.514335 -0.187576,-0.745897c-0.148154,-0.286433 -0.390336,-0.528354 -0.74751,-0.64741c-0.060866,-0.012611 -0.098848,0.017183 -0.098629,0.077961zm0.147211,0.107585c0.263006,0.11419 0.446365,0.300659 0.565367,0.530727c0.133646,0.258383 0.188894,0.566688 0.188894,0.857884c0.000026,0.06693 0.080937,0.100442 0.128281,0.053132c0.113526,-0.113528 0.239086,-0.243522 0.293983,-0.440463c0.129649,0.229472 0.178916,0.456463 0.178916,0.68792c0,0.623432 -0.50378,1.12721 -1.12721,1.12721c-0.60118,0 -1.12721,-0.526031 -1.12721,-1.126759c0.00186,-0.170571 0.053675,-0.310304 0.119033,-0.48963c0.052686,-0.144561 0.108124,-0.326943 0.149708,-0.548195c0.100234,0.111138 0.182143,0.228546 0.182143,0.436208c0.000025,0.06693 0.080937,0.100441 0.128278,0.053132c0.209125,-0.209125 0.283692,-0.525127 0.312773,-0.786847c0.015135,-0.11794 0.013548,-0.243196 0.007044,-0.354319z" stroke-dashoffset="0" stroke-miterlimit="4" stroke-linejoin="round" stroke-linecap="round" stroke-width="0.529167" fill-rule="nonzero" fill="#000000" clip-rule="nonzero" stroke="null" id="svg_12"/>
  </g>
  <g transform="rotate(-30 3.2085404396057045,14.096757888793942) " stroke="null" id="svg_13">
   <path d="m2.833098,12.59996c0,0 0.018032,0.199636 -0.009248,0.445161c-0.020819,0.187381 -0.070605,0.397008 -0.166732,0.560229c-0.05147,-0.209057 -0.179624,-0.3465 -0.297214,-0.464093c-0.044197,-0.044174 -0.119863,-0.018263 -0.127693,0.043739c-0.036591,0.292741 -0.107915,0.492487 -0.173043,0.671188c-0.065132,0.178701 -0.126018,0.340269 -0.128133,0.540561c0,0.751475 0.601179,1.277505 1.277505,1.277624c0.704657,0 1.277505,-0.572848 1.277505,-1.277505c0,-0.313113 -0.0805,-0.63341 -0.315562,-0.946825c-0.043307,-0.057863 -0.135347,-0.027209 -0.135322,0.045057c0,0.197952 -0.075334,0.313268 -0.168348,0.42021c-0.018796,-0.255034 -0.067801,-0.514335 -0.187576,-0.745897c-0.148154,-0.286433 -0.390336,-0.528354 -0.74751,-0.64741c-0.060866,-0.012611 -0.098848,0.017183 -0.098629,0.077961zm0.147211,0.107585c0.263006,0.11419 0.446365,0.300659 0.565367,0.530727c0.133646,0.258383 0.188894,0.566688 0.188894,0.857884c0.000026,0.06693 0.080937,0.100442 0.128281,0.053132c0.113526,-0.113528 0.239086,-0.243522 0.293983,-0.440463c0.129649,0.229472 0.178916,0.456463 0.178916,0.68792c0,0.623432 -0.50378,1.12721 -1.12721,1.12721c-0.60118,0 -1.12721,-0.526031 -1.12721,-1.126759c0.00186,-0.170571 0.053675,-0.310304 0.119033,-0.48963c0.052686,-0.144561 0.108124,-0.326943 0.149708,-0.548195c0.100234,0.111138 0.182143,0.228546 0.182143,0.436208c0.000025,0.06693 0.080937,0.100441 0.128278,0.053132c0.209125,-0.209125 0.283692,-0.525127 0.312773,-0.786847c0.015135,-0.11794 0.013548,-0.243196 0.007044,-0.354319z" stroke-dashoffset="0" stroke-miterlimit="4" stroke-linejoin="round" stroke-linecap="round" stroke-width="0.529167" fill-rule="nonzero" fill="#000000" clip-rule="nonzero" stroke="null" id="svg_14"/>
  </g>
  <g stroke="null" id="svg_15" transform="rotate(-30 4.517829418182367,8.05713367462158) ">
   <path d="m4.142387,6.560336c0,0 0.018032,0.199636 -0.009248,0.445161c-0.020819,0.187381 -0.070605,0.397008 -0.166732,0.560229c-0.05147,-0.209057 -0.179624,-0.3465 -0.297214,-0.464093c-0.044197,-0.044174 -0.119863,-0.018263 -0.127693,0.043739c-0.036591,0.292741 -0.107915,0.492487 -0.173043,0.671188c-0.065132,0.178701 -0.126018,0.340269 -0.128133,0.540561c0,0.751475 0.601179,1.277505 1.277505,1.277624c0.704657,0 1.277505,-0.572848 1.277505,-1.277505c0,-0.313113 -0.0805,-0.63341 -0.315562,-0.946825c-0.043307,-0.057863 -0.135347,-0.027209 -0.135322,0.045057c0,0.197952 -0.075334,0.313268 -0.168348,0.42021c-0.018796,-0.255034 -0.067801,-0.514335 -0.187576,-0.745897c-0.148154,-0.286433 -0.390336,-0.528354 -0.74751,-0.64741c-0.060866,-0.012611 -0.098848,0.017183 -0.098629,0.077961zm0.147211,0.107585c0.263006,0.11419 0.446365,0.300659 0.565367,0.530727c0.133646,0.258383 0.188894,0.566688 0.188894,0.857884c0.000026,0.06693 0.080937,0.100442 0.128281,0.053132c0.113526,-0.113528 0.239086,-0.243522 0.293983,-0.440463c0.129649,0.229472 0.178916,0.456463 0.178916,0.68792c0,0.623432 -0.50378,1.12721 -1.12721,1.12721c-0.60118,0 -1.12721,-0.526031 -1.12721,-1.126759c0.00186,-0.170571 0.053675,-0.310304 0.119033,-0.48963c0.052686,-0.144561 0.108124,-0.326943 0.149708,-0.548195c0.100234,0.111138 0.182143,0.228546 0.182143,0.436208c0.000025,0.06693 0.080937,0.100441 0.128278,0.053132c0.209125,-0.209125 0.283692,-0.525127 0.312773,-0.786847c0.015135,-0.11794 0.013548,-0.243196 0.007044,-0.354319z" stroke-dashoffset="0" stroke-miterlimit="4" stroke-linejoin="round" stroke-linecap="round" stroke-width="0.529167" fill-rule="nonzero" fill="#000000" clip-rule="nonzero" stroke="null" id="svg_16"/>
  </g>
 </g>
 <g>
  <title>Layer 3</title>
  <g transform="rotate(-30 8.00625896453857,7.975097656249999) " id="svg_21" stroke="null">
   <path d="m7.290772,5.122614c0,0 0.034365,0.38045 -0.017624,0.848353c-0.039674,0.357095 -0.134553,0.756587 -0.317745,1.067642c-0.098088,-0.398404 -0.342313,-0.660334 -0.566408,-0.884434c-0.084227,-0.084184 -0.228425,-0.034803 -0.243348,0.083355c-0.069731,0.557883 -0.205654,0.938544 -0.329771,1.279098c-0.124123,0.340554 -0.240155,0.648458 -0.244187,1.03016c0,1.432104 1.145682,2.434571 2.434571,2.434799c1.342882,0 2.434571,-1.091691 2.434571,-2.434571c0,-0.596708 -0.153412,-1.207105 -0.601373,-1.804386c-0.082532,-0.110272 -0.257935,-0.051853 -0.257886,0.085866c0,0.377241 -0.143566,0.597001 -0.320825,0.800804c-0.035821,-0.486024 -0.129211,-0.980178 -0.357469,-1.421473c-0.282341,-0.545862 -0.743873,-1.006895 -1.424548,-1.233783c-0.115993,-0.024032 -0.188377,0.032747 -0.187959,0.148572l0.000001,-0.000001l0,-0.000001zm0.280544,0.205027c0.501217,0.217617 0.850648,0.572974 1.077434,1.011421c0.254693,0.492406 0.35998,1.07995 0.35998,1.634889c0.000048,0.12755 0.154245,0.191414 0.244468,0.101255c0.216349,-0.216354 0.455632,-0.464087 0.560249,-0.839401c0.247077,0.437311 0.340965,0.869891 0.340965,1.310984c0,1.18809 -0.960066,2.148151 -2.148151,2.148151c-1.145682,0 -2.148151,-1.002468 -2.148151,-2.147289c0.003545,-0.325063 0.102288,-0.591355 0.226845,-0.9331c0.100404,-0.275494 0.206054,-0.623062 0.285302,-1.044708c0.191019,0.211797 0.347114,0.435546 0.347114,0.831293c0.000048,0.12755 0.154245,0.191414 0.244464,0.101255c0.398534,-0.398534 0.540639,-1.000747 0.596059,-1.499513c0.028844,-0.224761 0.025818,-0.463464 0.013423,-0.675235l0,-0.000003l-0.000001,0.000001z" stroke-dashoffset="0" stroke-miterlimit="4" stroke-linejoin="round" stroke-linecap="round" stroke-width="0.529167" fill-rule="nonzero" fill="#000000" clip-rule="nonzero" id="svg_22" stroke="null"/>
  </g>
 </g>
</svg>