<svg width="16" height="16" xmlns="http://www.w3.org/2000/svg" xmlns:svg="http://www.w3.org/2000/svg">
	<g>
		<title>Layer 3</title>
		<g stroke="null" id="svg_21" transform="rotate(-30 8.00625896453857,7.975097656249999) ">
			<path stroke="null" id="svg_22" clip-rule="nonzero" fill="#000000" fill-rule="nonzero" stroke-width="0.529167" stroke-linecap="round" stroke-linejoin="round" stroke-miterlimit="4" stroke-dashoffset="0" d="m7.290772,5.122614c0,0 0.034365,0.38045 -0.017624,0.848353c-0.039674,0.357095 -0.134553,0.756587 -0.317745,1.067642c-0.098088,-0.398404 -0.342313,-0.660334 -0.566408,-0.884434c-0.084227,-0.084184 -0.228425,-0.034803 -0.243348,0.083355c-0.069731,0.557883 -0.205654,0.938544 -0.329771,1.279098c-0.124123,0.340554 -0.240155,0.648458 -0.244187,1.03016c0,1.432104 1.145682,2.434571 2.434571,2.434799c1.342882,0 2.434571,-1.091691 2.434571,-2.434571c0,-0.596708 -0.153412,-1.207105 -0.601373,-1.804386c-0.082532,-0.110272 -0.257935,-0.051853 -0.257886,0.085866c0,0.377241 -0.143566,0.597001 -0.320825,0.800804c-0.035821,-0.486024 -0.129211,-0.980178 -0.357469,-1.421473c-0.282341,-0.545862 -0.743873,-1.006895 -1.424548,-1.233783c-0.115993,-0.024032 -0.188377,0.032747 -0.187959,0.148572l0.000001,-0.000001zm0.280544,0.205027c0.501217,0.217617 0.850648,0.572974 1.077434,1.011421c0.254693,0.492406 0.35998,1.07995 0.35998,1.634889c0.000048,0.12755 0.154245,0.191414 0.244468,0.101255c0.216349,-0.216354 0.455632,-0.464087 0.560249,-0.839401c0.247077,0.437311 0.340965,0.869891 0.340965,1.310984c0,1.18809 -0.960066,2.148151 -2.148151,2.148151c-1.145682,0 -2.148151,-1.002468 -2.148151,-2.147289c0.003545,-0.325063 0.102288,-0.591355 0.226845,-0.9331c0.100404,-0.275494 0.206054,-0.623062 0.285302,-1.044708c0.191019,0.211797 0.347114,0.435546 0.347114,0.831293c0.000048,0.12755 0.154245,0.191414 0.244464,0.101255c0.398534,-0.398534 0.540639,-1.000747 0.596059,-1.499513c0.028844,-0.224761 0.025818,-0.463464 0.013423,-0.675235l0,-0.000003z"/>
		</g>
	</g>
</svg>