<svg xmlns:dc="http://purl.org/dc/elements/1.1/" xmlns:cc="http://creativecommons.org/ns#" xmlns:rdf="http://www.w3.org/1999/02/22-rdf-syntax-ns#" xmlns:svg="http://www.w3.org/2000/svg" xmlns="http://www.w3.org/2000/svg" xmlns:sodipodi="http://sodipodi.sourceforge.net/DTD/sodipodi-0.dtd" xmlns:inkscape="http://www.inkscape.org/namespaces/inkscape" viewBox="0 0 12.7 15.875" version="1.1" x="0px" y="0px"><g transform="translate(0,-284.29999)"><path style="color:#000000;font-style:normal;font-variant:normal;font-weight:normal;font-stretch:normal;font-size:medium;line-height:normal;font-family:sans-serif;font-variant-ligatures:normal;font-variant-position:normal;font-variant-caps:normal;font-variant-numeric:normal;font-variant-alternates:normal;font-feature-settings:normal;text-indent:0;text-align:start;text-decoration:none;text-decoration-line:none;text-decoration-style:solid;text-decoration-color:#000000;letter-spacing:normal;word-spacing:normal;text-transform:none;writing-mode:lr-tb;direction:ltr;text-orientation:mixed;dominant-baseline:auto;baseline-shift:baseline;text-anchor:start;white-space:normal;shape-padding:0;clip-rule:nonzero;display:inline;overflow:visible;visibility:visible;opacity:1;isolation:auto;mix-blend-mode:normal;color-interpolation:sRGB;color-interpolation-filters:linearRGB;solid-color:#000000;solid-opacity:1;vector-effect:none;fill:#000000;fill-opacity:1;fill-rule:nonzero;stroke:none;stroke-width:0.52916664;stroke-linecap:round;stroke-linejoin:round;stroke-miterlimit:4;stroke-dasharray:none;stroke-dashoffset:0;stroke-opacity:1;paint-order:stroke fill markers;color-rendering:auto;image-rendering:auto;shape-rendering:auto;text-rendering:auto;enable-background:accumulate" d="m 5.0281167,285.38209 c 0,0 0.063495,0.70289 -0.032556,1.56735 -0.073305,0.65974 -0.2485956,1.39781 -0.5870442,1.97249 -0.1812184,-0.73606 -0.632423,-1.21998 -1.0464477,-1.63401 -0.1556083,-0.15553 -0.4220191,-0.0643 -0.449585,0.154 -0.1288381,1.0307 -0.3799506,1.73398 -0.609265,2.36316 -0.2293145,0.62918 -0.4436868,1.19804 -0.4511355,1.90324 0,2.64584 2.1166667,4.49792 4.4979168,4.49834 2.4809968,0 4.4979169,-2.01692 4.4979169,-4.49792 0,-1.10243 -0.283427,-2.23015 -1.1110436,-3.33364 -0.1524787,-0.20373 -0.4765397,-0.0958 -0.4764566,0.15864 0,0.69696 -0.2652393,1.10297 -0.5927286,1.4795 -0.066177,-0.89794 -0.2387198,-1.8109 -0.6604249,-2.6262 -0.5216363,-1.00849 -1.3743209,-1.86026 -2.6318807,-2.27944 -0.2143044,-0.0444 -0.3480328,0.0605 -0.3472659,0.27449 z m 0.5183148,0.37879 c 0.9260038,0.40205 1.5715909,1.05858 1.990576,1.86862 0.4705512,0.90973 0.6650757,1.99523 0.6650757,3.02049 9.12e-5,0.23565 0.2849655,0.35364 0.451652,0.18707 0.399715,-0.39972 0.8417991,-0.85741 1.0350791,-1.55081 0.4564787,0.80794 0.6299357,1.60714 0.6299357,2.42207 0,2.19502 -1.7737361,3.96875 -3.9687501,3.96875 -2.1166666,0 -3.9687499,-1.85208 -3.9687499,-3.96716 0.00655,-0.60056 0.1889757,-1.09254 0.4190957,-1.72392 0.1855063,-0.50898 0.3806958,-1.15112 0.5270998,-1.93012 0.3529179,0.3913 0.6413045,0.80468 0.6413045,1.53583 9.13e-5,0.23565 0.2849654,0.35364 0.4516519,0.18707 0.7362939,-0.7363 0.9988388,-1.8489 1.1012249,-2.77038 0.053297,-0.41525 0.047705,-0.85626 0.024805,-1.24751 z"/></g><text x="0" y="27.7" fill="#000000" font-size="5px" font-weight="bold" font-family="'Helvetica Neue', Helvetica, Arial-Unicode, Arial, Sans-serif">Created by Assyifa Art</text><text x="0" y="32.7" fill="#000000" font-size="5px" font-weight="bold" font-family="'Helvetica Neue', Helvetica, Arial-Unicode, Arial, Sans-serif">from the Noun Project</text></svg>